<svg xmlns="http://www.w3.org/2000/svg" viewBox="0 0 32 32">
  <style>
    .bg { fill: #000; }
    .fg { stroke: #fff; fill: none; }
    .dot { fill: #fff; stroke: none; }
    @media (prefers-color-scheme: dark) {
      .bg { fill: #fff; }
      .fg { stroke: #000; }
      .dot { fill: #000; }
    }
  </style>
  <rect x="0" y="0" width="32" height="32" class="bg" />
  <g transform="translate(4, 4)">
    <path
      d="M12 21L10.55 19.705C5.4 15.03 2 11.95 2 8.125C2 5.045 4.42 2.625 7.5 2.625C9.24 2.625 10.91 3.435 12 4.715C13.09 3.435 14.76 2.625 16.5 2.625C19.58 2.625 22 5.045 22 8.125C22 11.95 18.6 15.03 13.45 19.715L12 21Z"
      stroke-width="2"
      stroke-linecap="round"
      stroke-linejoin="round"
      class="fg"
    />
    <path
      d="M12 13C12 13 11.5 11 10.5 11C9.5 11 9 12 9 12M12 13C12 13 12.5 11 13.5 11C14.5 11 15 12 15 12"
      stroke-width="1.5"
      stroke-linecap="round"
      stroke-linejoin="round"
      class="fg"
    />
    <circle cx="10.5" cy="9.5" r="1" class="dot" />
    <circle cx="13.5" cy="9.5" r="1" class="dot" />
  </g>
</svg>
